<svg xmlns="http://www.w3.org/2000/svg" xmlns:xlink="http://www.w3.org/1999/xlink" width="1000" zoomAndPan="magnify" viewBox="0 0 750 374.999991" height="500" preserveAspectRatio="xMidYMid meet" version="1.0"><defs><g/><clipPath id="cb7181b2bd"><rect x="0" width="467" y="0" height="104"/></clipPath></defs><path fill="#32614d" d="M 76.304688 82.066406 L 87.023438 82.066406 C 91.65625 82.066406 95.417969 85.828125 95.417969 90.460938 L 95.417969 109.574219 L 76.304688 109.574219 C 71.671875 109.574219 67.910156 105.8125 67.910156 101.179688 L 67.910156 90.460938 C 67.910156 85.828125 71.671875 82.066406 76.304688 82.066406 Z M 76.304688 82.066406 " fill-opacity="1" fill-rule="nonzero"/><path fill="#32614d" d="M 131.320312 82.066406 L 150.433594 82.066406 L 150.433594 109.574219 L 131.925781 109.574219 C 126.953125 109.574219 122.914062 105.535156 122.914062 100.5625 L 122.914062 90.449219 C 122.914062 85.816406 126.675781 82.054688 131.308594 82.054688 Z M 131.320312 82.066406 " fill-opacity="1" fill-rule="nonzero"/><path fill="#32614d" d="M 150.445312 82.066406 L 177.953125 82.066406 L 177.953125 109.574219 L 150.445312 109.574219 Z M 150.445312 82.066406 " fill-opacity="1" fill-rule="nonzero"/><path fill="#32614d" d="M 76.304688 137.082031 L 86.417969 137.082031 C 91.390625 137.082031 95.429688 141.125 95.429688 146.09375 L 95.429688 164.601562 L 67.921875 164.601562 L 67.921875 145.488281 C 67.921875 140.855469 71.683594 137.09375 76.316406 137.09375 Z M 76.304688 137.082031 " fill-opacity="1" fill-rule="nonzero"/><path fill="#32614d" d="M 67.910156 164.589844 L 95.417969 164.589844 L 95.417969 192.097656 L 67.910156 192.097656 Z M 67.910156 164.589844 " fill-opacity="1" fill-rule="nonzero"/><path fill="#32614d" d="M 67.910156 192.097656 L 95.417969 192.097656 L 95.417969 210.605469 C 95.417969 215.578125 91.375 219.617188 86.40625 219.617188 L 76.910156 219.617188 C 71.9375 219.617188 67.898438 215.578125 67.898438 210.605469 L 67.898438 192.097656 Z M 67.910156 192.097656 " fill-opacity="1" fill-rule="nonzero"/><path fill="#32614d" d="M 177.953125 109.574219 L 205.460938 109.574219 L 205.460938 137.082031 L 177.953125 137.082031 Z M 177.953125 109.574219 " fill-opacity="1" fill-rule="nonzero"/><path fill="#32614d" d="M 177.953125 137.082031 L 205.460938 137.082031 L 205.460938 164.589844 L 177.953125 164.589844 Z M 177.953125 137.082031 " fill-opacity="1" fill-rule="nonzero"/><path fill="#32614d" d="M 177.953125 164.589844 L 205.460938 164.589844 L 205.460938 192.097656 L 177.953125 192.097656 Z M 177.953125 164.589844 " fill-opacity="1" fill-rule="nonzero"/><path fill="#32614d" d="M 177.953125 192.097656 L 205.460938 192.097656 L 205.460938 210.605469 C 205.460938 215.578125 201.417969 219.617188 196.449219 219.617188 L 186.953125 219.617188 C 181.980469 219.617188 177.941406 215.578125 177.941406 210.605469 L 177.941406 192.097656 Z M 177.953125 192.097656 " fill-opacity="1" fill-rule="nonzero"/><path fill="#32614d" d="M 95.417969 109.574219 L 114.53125 109.574219 C 119.164062 109.574219 122.925781 113.335938 122.925781 117.96875 L 122.925781 128.6875 C 122.925781 133.320312 119.164062 137.082031 114.53125 137.082031 L 103.8125 137.082031 C 99.179688 137.082031 95.417969 133.320312 95.417969 128.6875 Z M 95.417969 109.574219 " fill-opacity="1" fill-rule="nonzero"/><path fill="#32614d" d="M 271.191406 82.066406 L 287.984375 82.066406 L 287.984375 109.574219 L 260.476562 109.574219 L 260.476562 92.785156 C 260.476562 86.871094 265.277344 82.066406 271.191406 82.066406 Z M 271.191406 82.066406 " fill-opacity="1" fill-rule="nonzero"/><path fill="#32614d" d="M 287.984375 82.066406 L 315.492188 82.066406 L 315.492188 109.574219 L 287.984375 109.574219 Z M 287.984375 82.066406 " fill-opacity="1" fill-rule="nonzero"/><path fill="#32614d" d="M 315.492188 82.066406 L 332.109375 82.066406 C 338.125 82.066406 342.996094 86.941406 342.996094 92.953125 L 342.996094 98.6875 C 342.996094 104.699219 338.125 109.574219 332.109375 109.574219 L 315.492188 109.574219 Z M 315.492188 82.066406 " fill-opacity="1" fill-rule="nonzero"/><path fill="#32614d" d="M 243.988281 109.574219 L 260.464844 109.574219 L 260.464844 137.082031 L 232.957031 137.082031 L 232.957031 120.605469 C 232.957031 114.523438 237.890625 109.574219 243.988281 109.574219 Z M 243.988281 109.574219 " fill-opacity="1" fill-rule="nonzero"/><path fill="#32614d" d="M 232.96875 137.082031 L 260.476562 137.082031 L 260.476562 164.589844 L 232.96875 164.589844 Z M 232.96875 137.082031 " fill-opacity="1" fill-rule="nonzero"/><path fill="#32614d" d="M 232.96875 164.589844 L 260.476562 164.589844 L 260.476562 181.210938 C 260.476562 187.222656 255.601562 192.097656 249.589844 192.097656 L 243.855469 192.097656 C 237.84375 192.097656 232.96875 187.222656 232.96875 181.210938 Z M 232.96875 164.589844 " fill-opacity="1" fill-rule="nonzero"/><path fill="#32614d" d="M 353.886719 109.574219 L 359.617188 109.574219 C 365.628906 109.574219 370.503906 114.449219 370.503906 120.460938 L 370.503906 137.082031 L 342.996094 137.082031 L 342.996094 120.460938 C 342.996094 114.449219 347.871094 109.574219 353.886719 109.574219 Z M 353.886719 109.574219 " fill-opacity="1" fill-rule="nonzero"/><path fill="#32614d" d="M 425.53125 219.605469 C 410.351562 219.605469 398.027344 207.28125 398.027344 192.097656 L 425.53125 192.097656 Z M 425.53125 219.605469 " fill-opacity="1" fill-rule="nonzero"/><path fill="#32614d" d="M 177.953125 82.066406 C 193.132812 82.066406 205.460938 94.394531 205.460938 109.574219 L 177.953125 109.574219 Z M 177.953125 82.066406 " fill-opacity="1" fill-rule="nonzero"/><path fill="#32614d" d="M 342.996094 137.082031 L 370.503906 137.082031 L 370.503906 164.589844 L 342.996094 164.589844 Z M 342.996094 137.082031 " fill-opacity="1" fill-rule="nonzero"/><path fill="#32614d" d="M 342.996094 164.589844 L 370.503906 164.589844 L 370.503906 180.523438 C 370.503906 186.910156 365.316406 192.097656 358.929688 192.097656 L 342.996094 192.097656 Z M 342.996094 164.589844 " fill-opacity="1" fill-rule="nonzero"/><path fill="#32614d" d="M 315.492188 192.097656 L 342.996094 192.097656 L 342.996094 208.03125 C 342.996094 214.417969 337.808594 219.605469 331.421875 219.605469 L 315.492188 219.605469 Z M 315.492188 192.097656 " fill-opacity="1" fill-rule="nonzero"/><path fill="#32614d" d="M 287.984375 192.097656 L 315.492188 192.097656 L 315.492188 219.605469 L 287.984375 219.605469 Z M 287.984375 192.097656 " fill-opacity="1" fill-rule="nonzero"/><path fill="#32614d" d="M 271.363281 192.097656 L 287.984375 192.097656 L 287.984375 219.605469 L 271.363281 219.605469 C 265.351562 219.605469 260.476562 214.730469 260.476562 208.71875 L 260.476562 202.984375 C 260.476562 196.972656 265.351562 192.097656 271.363281 192.097656 Z M 271.363281 192.097656 " fill-opacity="1" fill-rule="nonzero"/><path fill="#32614d" d="M 516.074219 54.558594 L 527.53125 54.558594 C 531.957031 54.558594 535.550781 58.152344 535.550781 62.578125 L 535.550781 82.066406 L 508.042969 82.066406 L 508.042969 62.578125 C 508.042969 58.152344 511.636719 54.558594 516.0625 54.558594 Z M 516.074219 54.558594 " fill-opacity="1" fill-rule="nonzero"/><path fill="#32614d" d="M 411.511719 109.574219 L 425.519531 109.574219 L 425.519531 137.082031 L 398.011719 137.082031 L 398.011719 123.074219 C 398.011719 115.625 404.0625 109.574219 411.511719 109.574219 Z M 411.511719 109.574219 " fill-opacity="1" fill-rule="nonzero"/><path fill="#32614d" d="M 398.011719 164.589844 L 425.519531 164.589844 L 425.519531 192.097656 L 398.011719 192.097656 Z M 398.011719 164.589844 " fill-opacity="1" fill-rule="nonzero"/><path fill="#32614d" d="M 398.011719 137.082031 L 425.519531 137.082031 L 425.519531 164.589844 L 398.011719 164.589844 Z M 398.011719 137.082031 " fill-opacity="1" fill-rule="nonzero"/><path fill="#32614d" d="M 508.054688 82.066406 L 535.5625 82.066406 L 535.5625 109.574219 L 508.054688 109.574219 Z M 508.054688 82.066406 " fill-opacity="1" fill-rule="nonzero"/><path fill="#32614d" d="M 508.054688 109.574219 L 535.5625 109.574219 L 535.5625 137.082031 L 508.054688 137.082031 Z M 508.054688 109.574219 " fill-opacity="1" fill-rule="nonzero"/><path fill="#32614d" d="M 508.054688 137.082031 L 535.5625 137.082031 L 535.5625 164.589844 L 508.054688 164.589844 Z M 508.054688 137.082031 " fill-opacity="1" fill-rule="nonzero"/><path fill="#32614d" d="M 508.054688 164.589844 L 535.5625 164.589844 L 535.5625 180.402344 C 535.5625 186.859375 530.3125 192.097656 523.867188 192.097656 L 508.054688 192.097656 Z M 508.054688 164.589844 " fill-opacity="1" fill-rule="nonzero"/><path fill="#32614d" d="M 480.101562 82.066406 L 499.914062 82.066406 C 504.160156 82.066406 507.609375 85.515625 507.609375 89.761719 L 507.609375 101.894531 C 507.609375 106.140625 504.160156 109.585938 499.914062 109.585938 L 480.101562 109.585938 Z M 480.101562 82.066406 " fill-opacity="1" fill-rule="nonzero"/><path fill="#32614d" d="M 480.546875 192.097656 L 508.054688 192.097656 L 508.054688 207.910156 C 508.054688 214.367188 502.804688 219.605469 496.359375 219.605469 L 480.546875 219.605469 Z M 480.546875 192.097656 " fill-opacity="1" fill-rule="nonzero"/><path fill="#32614d" d="M 453.039062 82.066406 L 480.546875 82.066406 L 480.546875 109.574219 L 453.039062 109.574219 Z M 453.039062 82.066406 " fill-opacity="1" fill-rule="nonzero"/><path fill="#32614d" d="M 453.039062 192.097656 L 480.546875 192.097656 L 480.546875 219.605469 L 453.039062 219.605469 Z M 453.039062 192.097656 " fill-opacity="1" fill-rule="nonzero"/><path fill="#32614d" d="M 439.019531 82.066406 L 453.027344 82.066406 L 453.027344 109.574219 L 425.519531 109.574219 L 425.519531 95.566406 C 425.519531 88.117188 431.570312 82.066406 439.019531 82.066406 Z M 439.019531 82.066406 " fill-opacity="1" fill-rule="nonzero"/><path fill="#32614d" d="M 425.519531 192.097656 L 453.027344 192.097656 L 453.027344 219.605469 L 425.519531 219.605469 Z M 425.519531 192.097656 " fill-opacity="1" fill-rule="nonzero"/><path fill="#32614d" d="M 601.078125 82.066406 L 618.085938 82.066406 L 618.085938 109.574219 L 590.578125 109.574219 L 590.578125 92.566406 C 590.578125 86.773438 595.285156 82.066406 601.078125 82.066406 Z M 601.078125 82.066406 " fill-opacity="1" fill-rule="nonzero"/><path fill="#32614d" d="M 618.085938 82.066406 L 645.59375 82.066406 L 645.59375 109.574219 L 618.085938 109.574219 Z M 618.085938 82.066406 " fill-opacity="1" fill-rule="nonzero"/><path fill="#32614d" d="M 645.59375 82.066406 L 662.601562 82.066406 C 668.394531 82.066406 673.101562 86.773438 673.101562 92.566406 L 673.101562 109.574219 L 645.59375 109.574219 Z M 645.59375 82.066406 " fill-opacity="1" fill-rule="nonzero"/><path fill="#32614d" d="M 573.570312 109.574219 L 590.578125 109.574219 L 590.578125 137.082031 L 563.070312 137.082031 L 563.070312 120.074219 C 563.070312 114.28125 567.777344 109.574219 573.570312 109.574219 Z M 573.570312 109.574219 " fill-opacity="1" fill-rule="nonzero"/><path fill="#32614d" d="M 563.070312 137.082031 L 590.578125 137.082031 L 590.578125 164.589844 L 563.070312 164.589844 Z M 563.070312 137.082031 " fill-opacity="1" fill-rule="nonzero"/><path fill="#32614d" d="M 563.070312 164.589844 L 590.578125 164.589844 L 590.578125 192.097656 L 573.570312 192.097656 C 567.777344 192.097656 563.070312 187.394531 563.070312 181.597656 Z M 563.070312 164.589844 " fill-opacity="1" fill-rule="nonzero"/><path fill="#32614d" d="M 673.101562 109.574219 L 690.109375 109.574219 C 695.902344 109.574219 700.609375 114.28125 700.609375 120.074219 L 700.609375 124.394531 C 700.609375 131.398438 694.925781 137.082031 687.921875 137.082031 L 673.101562 137.082031 Z M 673.101562 109.574219 " fill-opacity="1" fill-rule="nonzero"/><path fill="#32614d" d="M 645.59375 137.082031 L 673.101562 137.082031 L 673.101562 149.640625 C 673.101562 157.890625 666.402344 164.589844 658.152344 164.589844 L 645.59375 164.589844 Z M 645.59375 137.082031 " fill-opacity="1" fill-rule="nonzero"/><path fill="#32614d" d="M 645.59375 192.097656 L 662.601562 192.097656 C 668.394531 192.097656 673.101562 196.804688 673.101562 202.597656 L 673.101562 209.105469 C 673.101562 214.898438 668.394531 219.605469 662.601562 219.605469 L 645.59375 219.605469 Z M 645.59375 192.097656 " fill-opacity="1" fill-rule="nonzero"/><path fill="#32614d" d="M 611.773438 137.082031 L 647.492188 137.082031 L 647.492188 164.589844 L 611.773438 164.589844 C 605.75 164.589844 600.847656 159.691406 600.847656 153.667969 L 600.847656 148.007812 C 600.847656 141.980469 605.75 137.082031 611.773438 137.082031 Z M 611.773438 137.082031 " fill-opacity="1" fill-rule="nonzero"/><path fill="#32614d" d="M 618.085938 192.097656 L 645.59375 192.097656 L 645.59375 219.605469 L 618.085938 219.605469 Z M 618.085938 192.097656 " fill-opacity="1" fill-rule="nonzero"/><path fill="#32614d" d="M 590.578125 192.097656 L 618.085938 192.097656 L 618.085938 219.605469 L 601.078125 219.605469 C 595.285156 219.605469 590.578125 214.898438 590.578125 209.105469 Z M 590.578125 192.097656 " fill-opacity="1" fill-rule="nonzero"/><path fill="#32614d" d="M 260.476562 92.335938 C 260.476562 101.859375 252.769531 109.5625 243.238281 109.5625 L 260.476562 109.5625 C 260.476562 109.5625 260.476562 92.109375 260.476562 92.324219 Z M 260.476562 92.335938 " fill-opacity="1" fill-rule="nonzero"/><path fill="#32614d" d="M 260.476562 126.800781 C 260.476562 117.28125 268.179688 109.574219 277.710938 109.574219 L 260.476562 109.574219 C 260.476562 109.574219 260.476562 127.03125 260.476562 126.8125 Z M 260.476562 126.800781 " fill-opacity="1" fill-rule="nonzero"/><path fill="#32614d" d="M 590.578125 92.335938 C 590.578125 101.859375 582.875 109.5625 573.339844 109.5625 L 590.578125 109.5625 C 590.578125 109.5625 590.578125 92.109375 590.578125 92.324219 Z M 590.578125 92.335938 " fill-opacity="1" fill-rule="nonzero"/><path fill="#32614d" d="M 590.578125 123.003906 C 590.578125 115.574219 596.589844 109.574219 604.007812 109.574219 L 590.578125 109.574219 C 590.578125 109.574219 590.578125 123.183594 590.578125 123.003906 Z M 590.578125 123.003906 " fill-opacity="1" fill-rule="nonzero"/><path fill="#32614d" d="M 673.257812 123.65625 C 673.257812 131.082031 667.246094 137.082031 659.832031 137.082031 L 673.257812 137.082031 C 673.257812 137.082031 673.257812 123.472656 673.257812 123.65625 Z M 673.257812 123.65625 " fill-opacity="1" fill-rule="nonzero"/><path fill="#32614d" d="M 659.832031 109.574219 C 667.257812 109.574219 673.257812 115.585938 673.257812 123.003906 L 673.257812 109.574219 C 673.257812 109.574219 659.652344 109.574219 659.832031 109.574219 Z M 659.832031 109.574219 " fill-opacity="1" fill-rule="nonzero"/><path fill="#32614d" d="M 690.339844 109.574219 C 680.820312 109.574219 673.113281 101.871094 673.113281 92.335938 L 673.113281 109.574219 C 673.113281 109.574219 690.570312 109.574219 690.351562 109.574219 Z M 690.339844 109.574219 " fill-opacity="1" fill-rule="nonzero"/><path fill="#32614d" d="M 673.101562 150.511719 C 673.101562 143.082031 679.113281 137.082031 686.527344 137.082031 L 673.101562 137.082031 C 673.101562 137.082031 673.101562 150.691406 673.101562 150.511719 Z M 673.101562 150.511719 " fill-opacity="1" fill-rule="nonzero"/><path fill="#32614d" d="M 673.257812 119.84375 C 673.257812 129.367188 665.554688 137.070312 656.023438 137.070312 L 673.257812 137.070312 C 673.257812 137.070312 673.257812 119.617188 673.257812 119.832031 Z M 673.257812 119.84375 " fill-opacity="1" fill-rule="nonzero"/><path fill="#32614d" d="M 607.816406 192.097656 C 598.296875 192.097656 590.589844 184.394531 590.589844 174.859375 L 590.589844 192.097656 C 590.589844 192.097656 608.046875 192.097656 607.828125 192.097656 Z M 607.816406 192.097656 " fill-opacity="1" fill-rule="nonzero"/><path fill="#32614d" d="M 573.339844 192.097656 C 582.863281 192.097656 590.566406 199.804688 590.566406 209.335938 L 590.566406 192.097656 C 590.566406 192.097656 573.113281 192.097656 573.328125 192.097656 Z M 573.339844 192.097656 " fill-opacity="1" fill-rule="nonzero"/><path fill="#32614d" d="M 425.519531 92.335938 C 425.519531 101.859375 417.816406 109.5625 408.285156 109.5625 L 425.519531 109.5625 C 425.519531 109.5625 425.519531 92.109375 425.519531 92.324219 Z M 425.519531 92.335938 " fill-opacity="1" fill-rule="nonzero"/><path fill="#32614d" d="M 425.519531 126.800781 C 425.519531 117.28125 433.226562 109.574219 442.757812 109.574219 L 425.519531 109.574219 C 425.519531 109.574219 425.519531 127.03125 425.519531 126.8125 Z M 425.519531 126.800781 " fill-opacity="1" fill-rule="nonzero"/><path fill="#32614d" d="M 508.054688 209.335938 C 508.054688 199.816406 515.761719 192.109375 525.292969 192.109375 L 508.054688 192.109375 C 508.054688 192.109375 508.054688 209.566406 508.054688 209.347656 Z M 508.054688 209.335938 " fill-opacity="1" fill-rule="nonzero"/><path fill="#32614d" d="M 442.757812 192.097656 C 433.238281 192.097656 425.53125 184.394531 425.53125 174.859375 L 425.53125 192.097656 C 425.53125 192.097656 442.988281 192.097656 442.769531 192.097656 Z M 442.757812 192.097656 " fill-opacity="1" fill-rule="nonzero"/><path fill="#32614d" d="M 408.296875 192.097656 C 417.816406 192.097656 425.519531 199.804688 425.519531 209.335938 L 425.519531 192.097656 C 425.519531 192.097656 408.066406 192.097656 408.285156 192.097656 Z M 408.296875 192.097656 " fill-opacity="1" fill-rule="nonzero"/><path fill="#32614d" d="M 160.714844 109.574219 C 170.234375 109.574219 177.941406 117.28125 177.941406 126.8125 L 177.941406 109.574219 C 177.941406 109.574219 160.484375 109.574219 160.703125 109.574219 Z M 160.714844 109.574219 " fill-opacity="1" fill-rule="nonzero"/><path fill="#32614d" d="M 342.996094 174.871094 C 342.996094 184.394531 335.292969 192.097656 325.761719 192.097656 L 342.996094 192.097656 C 342.996094 192.097656 342.996094 174.644531 342.996094 174.859375 Z M 342.996094 174.871094 " fill-opacity="1" fill-rule="nonzero"/><path fill="#32614d" d="M 508.054688 174.871094 C 508.054688 184.394531 500.351562 192.097656 490.820312 192.097656 L 508.054688 192.097656 C 508.054688 192.097656 508.054688 174.644531 508.054688 174.859375 Z M 508.054688 174.871094 " fill-opacity="1" fill-rule="nonzero"/><path fill="#32614d" d="M 342.671875 209.335938 C 342.671875 199.816406 350.375 192.109375 359.910156 192.109375 L 342.671875 192.109375 C 342.671875 192.109375 342.671875 209.566406 342.671875 209.347656 Z M 342.671875 209.335938 " fill-opacity="1" fill-rule="nonzero"/><path fill="#32614d" d="M 78.191406 109.574219 C 87.710938 109.574219 95.417969 117.28125 95.417969 126.8125 L 95.417969 109.574219 C 95.417969 109.574219 77.960938 109.574219 78.179688 109.574219 Z M 78.191406 109.574219 " fill-opacity="1" fill-rule="nonzero"/><path fill="#32614d" d="M 112.65625 109.574219 C 103.132812 109.574219 95.429688 101.871094 95.429688 92.335938 L 95.429688 109.574219 C 95.429688 109.574219 112.882812 109.574219 112.667969 109.574219 Z M 112.65625 109.574219 " fill-opacity="1" fill-rule="nonzero"/><path fill="#32614d" d="M 645.59375 211.210938 L 645.59375 200.492188 C 645.59375 195.859375 649.355469 192.097656 653.988281 192.097656 L 673.101562 192.097656 L 673.101562 211.210938 C 673.101562 215.84375 669.339844 219.605469 664.707031 219.605469 L 653.988281 219.605469 C 649.355469 219.605469 645.59375 215.84375 645.59375 211.210938 Z M 645.59375 211.210938 " fill-opacity="1" fill-rule="nonzero"/><path fill="#32614d" d="M 673.101562 192.097656 L 673.101562 172.984375 C 673.101562 168.351562 676.863281 164.589844 681.496094 164.589844 L 692.214844 164.589844 C 696.847656 164.589844 700.609375 168.351562 700.609375 172.984375 L 700.609375 183.703125 C 700.609375 188.335938 696.847656 192.097656 692.214844 192.097656 Z M 673.101562 192.097656 " fill-opacity="1" fill-rule="nonzero"/><path fill="#32614d" d="M 673.101562 209.324219 C 673.101562 199.804688 680.808594 192.097656 690.339844 192.097656 L 673.101562 192.097656 C 673.101562 192.097656 673.101562 209.554688 673.101562 209.335938 Z M 673.101562 209.324219 " fill-opacity="1" fill-rule="nonzero"/><path fill="#32614d" d="M 673.101562 174.859375 C 673.101562 184.378906 665.398438 192.085938 655.863281 192.085938 L 673.101562 192.085938 C 673.101562 192.085938 673.101562 174.628906 673.101562 174.847656 Z M 673.101562 174.859375 " fill-opacity="1" fill-rule="nonzero"/><g transform="matrix(1, 0, 0, 1, 148, 240)"><g clip-path="url(#cb7181b2bd)"><g fill="#32614d" fill-opacity="1"><g transform="translate(1.458791, 74.338763)"><g><path d="M 14.671875 -54.171875 C 14.554688 -50.617188 14.5 -47.050781 14.5 -43.46875 C 14.5 -39.894531 14.5 -36.28125 14.5 -32.625 L 14.5 -12.953125 C 14.5 -9.347656 14.5 -5.753906 14.5 -2.171875 C 14.5 1.410156 14.554688 5.003906 14.671875 8.609375 L 23.765625 9.671875 L 23.765625 13.03125 L 8.1875 13.03125 C 8.300781 8.769531 8.367188 4.476562 8.390625 0.15625 C 8.421875 -4.15625 8.4375 -8.523438 8.4375 -12.953125 L 8.4375 -32.625 C 8.4375 -36.9375 8.421875 -41.265625 8.390625 -45.609375 C 8.367188 -49.953125 8.300781 -54.28125 8.1875 -58.59375 L 23.765625 -58.59375 L 23.765625 -55.234375 Z M 14.671875 -54.171875 "/></g></g></g><g fill="#32614d" fill-opacity="1"><g transform="translate(22.186767, 74.338763)"><g/></g></g><g fill="#32614d" fill-opacity="1"><g transform="translate(35.786214, 74.338763)"><g><path d="M 48.515625 -14.59375 L 48.1875 -2.703125 C 45.5625 -1.285156 42.867188 -0.273438 40.109375 0.328125 C 37.359375 0.929688 34.535156 1.234375 31.640625 1.234375 C 27.484375 1.234375 23.695312 0.535156 20.28125 -0.859375 C 16.863281 -2.253906 13.941406 -4.222656 11.515625 -6.765625 C 9.085938 -9.304688 7.203125 -12.320312 5.859375 -15.8125 C 4.523438 -19.3125 3.859375 -23.164062 3.859375 -27.375 C 3.859375 -31.519531 4.550781 -35.351562 5.9375 -38.875 C 7.332031 -42.40625 9.257812 -45.441406 11.71875 -47.984375 C 14.175781 -50.523438 17.097656 -52.503906 20.484375 -53.921875 C 23.867188 -55.347656 27.585938 -56.0625 31.640625 -56.0625 C 33.878906 -56.0625 36.363281 -55.800781 39.09375 -55.28125 C 41.820312 -54.757812 44.582031 -53.707031 47.375 -52.125 L 47.703125 -40.15625 L 42.53125 -40.15625 L 40.890625 -49.90625 C 39.472656 -50.613281 38.082031 -51.117188 36.71875 -51.421875 C 35.351562 -51.722656 33.957031 -51.875 32.53125 -51.875 C 29.800781 -51.875 27.234375 -51.34375 24.828125 -50.28125 C 22.421875 -49.21875 20.316406 -47.660156 18.515625 -45.609375 C 16.710938 -43.554688 15.289062 -41 14.25 -37.9375 C 13.21875 -34.882812 12.703125 -31.363281 12.703125 -27.375 C 12.703125 -23.382812 13.179688 -19.875 14.140625 -16.84375 C 15.097656 -13.8125 16.421875 -11.253906 18.109375 -9.171875 C 19.804688 -7.097656 21.84375 -5.53125 24.21875 -4.46875 C 26.59375 -3.40625 29.175781 -2.875 31.96875 -2.875 C 33.550781 -2.875 35.160156 -3.050781 36.796875 -3.40625 C 38.429688 -3.757812 40.070312 -4.316406 41.71875 -5.078125 L 43.359375 -14.59375 Z M 48.515625 -14.59375 "/></g></g></g><g fill="#32614d" fill-opacity="1"><g transform="translate(81.996594, 74.338763)"><g><path d="M 16.390625 -29.828125 C 17.804688 -33.109375 19.566406 -35.660156 21.671875 -37.484375 C 23.773438 -39.316406 25.945312 -40.234375 28.1875 -40.234375 C 29.394531 -40.234375 30.554688 -39.921875 31.671875 -39.296875 C 32.796875 -38.671875 33.492188 -37.644531 33.765625 -36.21875 C 33.765625 -34.851562 33.300781 -33.773438 32.375 -32.984375 C 31.445312 -32.191406 30.269531 -31.796875 28.84375 -31.796875 C 27.15625 -31.796875 25.597656 -32.476562 24.171875 -33.84375 L 23.609375 -34.421875 C 21.910156 -33.160156 20.488281 -31.671875 19.34375 -29.953125 C 18.195312 -28.234375 17.238281 -26.144531 16.46875 -23.6875 L 16.46875 -17.203125 C 16.46875 -15.398438 16.476562 -13.296875 16.5 -10.890625 C 16.53125 -8.492188 16.578125 -6.253906 16.640625 -4.171875 L 23.359375 -2.953125 L 23.359375 0 L 3.53125 0 L 3.53125 -2.953125 L 9.421875 -4.015625 C 9.472656 -6.085938 9.515625 -8.335938 9.546875 -10.765625 C 9.578125 -13.203125 9.59375 -15.347656 9.59375 -17.203125 L 9.59375 -21.390625 C 9.59375 -23.628906 9.5625 -25.484375 9.5 -26.953125 C 9.445312 -28.429688 9.394531 -29.992188 9.34375 -31.640625 L 2.875 -32.375 L 2.875 -35.234375 L 14.265625 -40.234375 L 15.484375 -39.421875 Z M 16.390625 -29.828125 "/></g></g></g><g fill="#32614d" fill-opacity="1"><g transform="translate(111.164067, 74.338763)"><g><path d="M 26.3125 -23.359375 C 28.269531 -23.359375 29.578125 -23.765625 30.234375 -24.578125 C 30.890625 -25.398438 31.21875 -26.414062 31.21875 -27.625 C 31.21875 -28.769531 30.984375 -29.875 30.515625 -30.9375 C 30.054688 -32 29.429688 -32.941406 28.640625 -33.765625 C 27.847656 -34.585938 26.921875 -35.242188 25.859375 -35.734375 C 24.796875 -36.222656 23.632812 -36.46875 22.375 -36.46875 C 21.226562 -36.46875 20.039062 -36.234375 18.8125 -35.765625 C 17.582031 -35.304688 16.460938 -34.539062 15.453125 -33.46875 C 14.441406 -32.40625 13.566406 -31.039062 12.828125 -29.375 C 12.085938 -27.707031 11.609375 -25.703125 11.390625 -23.359375 Z M 11.234375 -19.828125 C 11.335938 -14.753906 12.59375 -10.847656 15 -8.109375 C 17.40625 -5.378906 20.570312 -4.015625 24.5 -4.015625 C 27.125 -4.015625 29.3125 -4.5625 31.0625 -5.65625 C 32.8125 -6.75 34.421875 -8.171875 35.890625 -9.921875 L 37.859375 -8.359375 C 36.441406 -5.410156 34.40625 -3.070312 31.75 -1.34375 C 29.101562 0.375 25.894531 1.234375 22.125 1.234375 C 19.34375 1.234375 16.832031 0.769531 14.59375 -0.15625 C 12.351562 -1.09375 10.4375 -2.445312 8.84375 -4.21875 C 7.257812 -6 6.03125 -8.144531 5.15625 -10.65625 C 4.289062 -13.164062 3.859375 -15.976562 3.859375 -19.09375 C 3.859375 -22.207031 4.347656 -25.0625 5.328125 -27.65625 C 6.304688 -30.25 7.65625 -32.472656 9.375 -34.328125 C 11.101562 -36.191406 13.113281 -37.640625 15.40625 -38.671875 C 17.695312 -39.710938 20.128906 -40.234375 22.703125 -40.234375 C 24.828125 -40.234375 26.832031 -39.878906 28.71875 -39.171875 C 30.601562 -38.460938 32.226562 -37.425781 33.59375 -36.0625 C 34.96875 -34.695312 36.050781 -33.03125 36.84375 -31.0625 C 37.632812 -29.09375 38.03125 -26.878906 38.03125 -24.421875 C 38.03125 -23.492188 37.972656 -22.644531 37.859375 -21.875 C 37.753906 -21.113281 37.617188 -20.429688 37.453125 -19.828125 Z M 11.234375 -19.828125 "/></g></g></g><g fill="#32614d" fill-opacity="1"><g transform="translate(147.460069, 74.338763)"><g><path d="M 26.546875 -21.21875 C 25.128906 -20.84375 23.75 -20.4375 22.40625 -20 C 21.070312 -19.5625 19.96875 -19.175781 19.09375 -18.84375 C 17.289062 -18.132812 15.851562 -17.410156 14.78125 -16.671875 C 13.71875 -15.941406 12.914062 -15.21875 12.375 -14.5 C 11.832031 -13.789062 11.476562 -13.082031 11.3125 -12.375 C 11.144531 -11.664062 11.0625 -11.007812 11.0625 -10.40625 C 11.0625 -9.3125 11.210938 -8.4375 11.515625 -7.78125 C 11.816406 -7.125 12.1875 -6.550781 12.625 -6.0625 C 13.875 -4.800781 15.539062 -4.171875 17.625 -4.171875 C 18.28125 -4.171875 18.90625 -4.238281 19.5 -4.375 C 20.101562 -4.519531 20.734375 -4.769531 21.390625 -5.125 C 22.046875 -5.476562 22.78125 -5.941406 23.59375 -6.515625 C 24.414062 -7.085938 25.398438 -7.785156 26.546875 -8.609375 Z M 41.296875 -3.53125 C 40.367188 -1.78125 39.359375 -0.617188 38.265625 -0.046875 C 37.179688 0.523438 35.984375 0.8125 34.671875 0.8125 C 32.367188 0.8125 30.5625 0.253906 29.25 -0.859375 C 27.945312 -1.984375 27.101562 -3.472656 26.71875 -5.328125 C 25.625 -4.234375 24.613281 -3.273438 23.6875 -2.453125 C 22.757812 -1.640625 21.828125 -0.957031 20.890625 -0.40625 C 19.960938 0.132812 19.003906 0.539062 18.015625 0.8125 C 17.035156 1.09375 15.945312 1.234375 14.75 1.234375 C 13.269531 1.234375 11.859375 1.015625 10.515625 0.578125 C 9.179688 0.140625 8.007812 -0.515625 7 -1.390625 C 5.988281 -2.265625 5.195312 -3.34375 4.625 -4.625 C 4.050781 -5.914062 3.765625 -7.40625 3.765625 -9.09375 C 3.765625 -10.238281 3.957031 -11.359375 4.34375 -12.453125 C 4.726562 -13.546875 5.410156 -14.597656 6.390625 -15.609375 C 7.378906 -16.617188 8.757812 -17.628906 10.53125 -18.640625 C 12.300781 -19.648438 14.582031 -20.648438 17.375 -21.640625 C 18.632812 -22.078125 20.066406 -22.523438 21.671875 -22.984375 C 23.285156 -23.453125 24.910156 -23.90625 26.546875 -24.34375 L 26.546875 -26.546875 C 26.546875 -28.515625 26.394531 -30.140625 26.09375 -31.421875 C 25.800781 -32.710938 25.351562 -33.722656 24.75 -34.453125 C 24.144531 -35.191406 23.363281 -35.710938 22.40625 -36.015625 C 21.457031 -36.316406 20.300781 -36.46875 18.9375 -36.46875 C 18.332031 -36.46875 17.6875 -36.441406 17 -36.390625 C 16.320312 -36.335938 15.570312 -36.226562 14.75 -36.0625 L 13.109375 -30.328125 C 12.347656 -27.703125 10.875 -26.390625 8.6875 -26.390625 C 7.539062 -26.390625 6.640625 -26.703125 5.984375 -27.328125 C 5.328125 -27.960938 4.941406 -28.820312 4.828125 -29.90625 C 5.597656 -33.019531 7.398438 -35.519531 10.234375 -37.40625 C 13.078125 -39.289062 16.601562 -40.234375 20.8125 -40.234375 C 25.132812 -40.234375 28.332031 -39.140625 30.40625 -36.953125 C 32.476562 -34.773438 33.515625 -31.0625 33.515625 -25.8125 L 33.515625 -8.28125 C 33.515625 -5.050781 34.414062 -3.4375 36.21875 -3.4375 C 36.875 -3.4375 37.445312 -3.585938 37.9375 -3.890625 C 38.4375 -4.191406 38.875 -4.503906 39.25 -4.828125 L 39.671875 -5.328125 Z M 41.296875 -3.53125 "/></g></g></g><g fill="#32614d" fill-opacity="1"><g transform="translate(183.756071, 74.338763)"><g><path d="M 26.46875 -3.53125 C 25.425781 -2.15625 24.070312 -1.085938 22.40625 -0.328125 C 20.75 0.429688 18.878906 0.8125 16.796875 0.8125 C 13.898438 0.8125 11.617188 0.0625 9.953125 -1.4375 C 8.285156 -2.9375 7.453125 -5.296875 7.453125 -8.515625 C 7.453125 -9.554688 7.46875 -10.582031 7.5 -11.59375 C 7.53125 -12.601562 7.546875 -13.898438 7.546875 -15.484375 L 7.546875 -34.421875 L 0.734375 -34.421875 L 0.734375 -38.03125 L 8.03125 -38.921875 L 10.078125 -50.078125 L 15.078125 -50.078125 L 14.671875 -38.765625 L 25.65625 -38.765625 L 25.65625 -34.421875 L 14.5 -34.421875 L 14.5 -9.5 C 14.5 -7.375 14.894531 -5.832031 15.6875 -4.875 C 16.476562 -3.914062 17.585938 -3.4375 19.015625 -3.4375 C 20.648438 -3.4375 22.476562 -4.203125 24.5 -5.734375 Z M 26.46875 -3.53125 "/></g></g></g><g fill="#32614d" fill-opacity="1"><g transform="translate(204.975684, 74.338763)"><g><path d="M 12.53125 -49.015625 C 10.945312 -49.015625 9.632812 -49.503906 8.59375 -50.484375 C 7.5625 -51.460938 7.046875 -52.742188 7.046875 -54.328125 C 7.046875 -55.921875 7.5625 -57.191406 8.59375 -58.140625 C 9.632812 -59.097656 10.945312 -59.578125 12.53125 -59.578125 C 14.125 -59.578125 15.4375 -59.097656 16.46875 -58.140625 C 17.507812 -57.191406 18.03125 -55.921875 18.03125 -54.328125 C 18.03125 -52.742188 17.507812 -51.460938 16.46875 -50.484375 C 15.4375 -49.503906 14.125 -49.015625 12.53125 -49.015625 Z M 21.875 -2.953125 L 21.875 0 L 2.875 0 L 2.875 -2.953125 L 9.015625 -4.09375 C 9.066406 -6.175781 9.101562 -8.429688 9.125 -10.859375 C 9.15625 -13.285156 9.171875 -15.398438 9.171875 -17.203125 L 9.171875 -21.3125 C 9.171875 -23.550781 9.144531 -25.421875 9.09375 -26.921875 C 9.039062 -28.421875 8.988281 -29.992188 8.9375 -31.640625 L 2.453125 -32.375 L 2.453125 -35.234375 L 15.078125 -40.234375 L 16.3125 -39.421875 L 16.0625 -28.28125 L 16.0625 -17.203125 C 16.0625 -15.398438 16.070312 -13.285156 16.09375 -10.859375 C 16.125 -8.429688 16.171875 -6.175781 16.234375 -4.09375 Z M 21.875 -2.953125 "/></g></g></g><g fill="#32614d" fill-opacity="1"><g transform="translate(223.901054, 74.338763)"><g><path d="M 40.65625 -35.40625 L 36.21875 -34.5 L 22.78125 0.8125 L 19.34375 0.8125 L 4.5 -34.75 L 0 -35.40625 L 0 -38.765625 L 19.828125 -38.765625 L 19.828125 -35.40625 L 12.625 -34.5 L 22.625 -8.109375 L 31.796875 -34.421875 L 25.15625 -35.40625 L 25.15625 -38.765625 L 40.65625 -38.765625 Z M 40.65625 -35.40625 "/></g></g></g><g fill="#32614d" fill-opacity="1"><g transform="translate(259.8693, 74.338763)"><g><path d="M 26.3125 -23.359375 C 28.269531 -23.359375 29.578125 -23.765625 30.234375 -24.578125 C 30.890625 -25.398438 31.21875 -26.414062 31.21875 -27.625 C 31.21875 -28.769531 30.984375 -29.875 30.515625 -30.9375 C 30.054688 -32 29.429688 -32.941406 28.640625 -33.765625 C 27.847656 -34.585938 26.921875 -35.242188 25.859375 -35.734375 C 24.796875 -36.222656 23.632812 -36.46875 22.375 -36.46875 C 21.226562 -36.46875 20.039062 -36.234375 18.8125 -35.765625 C 17.582031 -35.304688 16.460938 -34.539062 15.453125 -33.46875 C 14.441406 -32.40625 13.566406 -31.039062 12.828125 -29.375 C 12.085938 -27.707031 11.609375 -25.703125 11.390625 -23.359375 Z M 11.234375 -19.828125 C 11.335938 -14.753906 12.59375 -10.847656 15 -8.109375 C 17.40625 -5.378906 20.570312 -4.015625 24.5 -4.015625 C 27.125 -4.015625 29.3125 -4.5625 31.0625 -5.65625 C 32.8125 -6.75 34.421875 -8.171875 35.890625 -9.921875 L 37.859375 -8.359375 C 36.441406 -5.410156 34.40625 -3.070312 31.75 -1.34375 C 29.101562 0.375 25.894531 1.234375 22.125 1.234375 C 19.34375 1.234375 16.832031 0.769531 14.59375 -0.15625 C 12.351562 -1.09375 10.4375 -2.445312 8.84375 -4.21875 C 7.257812 -6 6.03125 -8.144531 5.15625 -10.65625 C 4.289062 -13.164062 3.859375 -15.976562 3.859375 -19.09375 C 3.859375 -22.207031 4.347656 -25.0625 5.328125 -27.65625 C 6.304688 -30.25 7.65625 -32.472656 9.375 -34.328125 C 11.101562 -36.191406 13.113281 -37.640625 15.40625 -38.671875 C 17.695312 -39.710938 20.128906 -40.234375 22.703125 -40.234375 C 24.828125 -40.234375 26.832031 -39.878906 28.71875 -39.171875 C 30.601562 -38.460938 32.226562 -37.425781 33.59375 -36.0625 C 34.96875 -34.695312 36.050781 -33.03125 36.84375 -31.0625 C 37.632812 -29.09375 38.03125 -26.878906 38.03125 -24.421875 C 38.03125 -23.492188 37.972656 -22.644531 37.859375 -21.875 C 37.753906 -21.113281 37.617188 -20.429688 37.453125 -19.828125 Z M 11.234375 -19.828125 "/></g></g></g><g fill="#32614d" fill-opacity="1"><g transform="translate(296.165302, 74.338763)"><g/></g></g><g fill="#32614d" fill-opacity="1"><g transform="translate(309.764749, 74.338763)"><g><path d="M 45.3125 -15.40625 L 44.5 0 L 3.609375 0 L 3.609375 -3.359375 L 11.140625 -4.265625 C 11.253906 -7.816406 11.3125 -11.335938 11.3125 -14.828125 C 11.3125 -18.328125 11.3125 -21.851562 11.3125 -25.40625 L 11.3125 -29.421875 C 11.3125 -33.023438 11.3125 -36.585938 11.3125 -40.109375 C 11.3125 -43.640625 11.253906 -47.125 11.140625 -50.5625 L 3.609375 -51.46875 L 3.609375 -54.828125 L 26.796875 -54.828125 L 26.796875 -51.46875 L 19.171875 -50.5625 C 19.066406 -47.007812 19.015625 -43.484375 19.015625 -39.984375 C 19.015625 -36.492188 19.015625 -32.972656 19.015625 -29.421875 L 19.015625 -25.40625 C 19.015625 -21.800781 19.015625 -18.222656 19.015625 -14.671875 C 19.015625 -11.117188 19.066406 -7.59375 19.171875 -4.09375 L 37.859375 -4.09375 L 40.234375 -15.40625 Z M 45.3125 -15.40625 "/></g></g></g><g fill="#32614d" fill-opacity="1"><g transform="translate(353.107325, 74.338763)"><g><path d="M 26.546875 -21.21875 C 25.128906 -20.84375 23.75 -20.4375 22.40625 -20 C 21.070312 -19.5625 19.96875 -19.175781 19.09375 -18.84375 C 17.289062 -18.132812 15.851562 -17.410156 14.78125 -16.671875 C 13.71875 -15.941406 12.914062 -15.21875 12.375 -14.5 C 11.832031 -13.789062 11.476562 -13.082031 11.3125 -12.375 C 11.144531 -11.664062 11.0625 -11.007812 11.0625 -10.40625 C 11.0625 -9.3125 11.210938 -8.4375 11.515625 -7.78125 C 11.816406 -7.125 12.1875 -6.550781 12.625 -6.0625 C 13.875 -4.800781 15.539062 -4.171875 17.625 -4.171875 C 18.28125 -4.171875 18.90625 -4.238281 19.5 -4.375 C 20.101562 -4.519531 20.734375 -4.769531 21.390625 -5.125 C 22.046875 -5.476562 22.78125 -5.941406 23.59375 -6.515625 C 24.414062 -7.085938 25.398438 -7.785156 26.546875 -8.609375 Z M 41.296875 -3.53125 C 40.367188 -1.78125 39.359375 -0.617188 38.265625 -0.046875 C 37.179688 0.523438 35.984375 0.8125 34.671875 0.8125 C 32.367188 0.8125 30.5625 0.253906 29.25 -0.859375 C 27.945312 -1.984375 27.101562 -3.472656 26.71875 -5.328125 C 25.625 -4.234375 24.613281 -3.273438 23.6875 -2.453125 C 22.757812 -1.640625 21.828125 -0.957031 20.890625 -0.40625 C 19.960938 0.132812 19.003906 0.539062 18.015625 0.8125 C 17.035156 1.09375 15.945312 1.234375 14.75 1.234375 C 13.269531 1.234375 11.859375 1.015625 10.515625 0.578125 C 9.179688 0.140625 8.007812 -0.515625 7 -1.390625 C 5.988281 -2.265625 5.195312 -3.34375 4.625 -4.625 C 4.050781 -5.914062 3.765625 -7.40625 3.765625 -9.09375 C 3.765625 -10.238281 3.957031 -11.359375 4.34375 -12.453125 C 4.726562 -13.546875 5.410156 -14.597656 6.390625 -15.609375 C 7.378906 -16.617188 8.757812 -17.628906 10.53125 -18.640625 C 12.300781 -19.648438 14.582031 -20.648438 17.375 -21.640625 C 18.632812 -22.078125 20.066406 -22.523438 21.671875 -22.984375 C 23.285156 -23.453125 24.910156 -23.90625 26.546875 -24.34375 L 26.546875 -26.546875 C 26.546875 -28.515625 26.394531 -30.140625 26.09375 -31.421875 C 25.800781 -32.710938 25.351562 -33.722656 24.75 -34.453125 C 24.144531 -35.191406 23.363281 -35.710938 22.40625 -36.015625 C 21.457031 -36.316406 20.300781 -36.46875 18.9375 -36.46875 C 18.332031 -36.46875 17.6875 -36.441406 17 -36.390625 C 16.320312 -36.335938 15.570312 -36.226562 14.75 -36.0625 L 13.109375 -30.328125 C 12.347656 -27.703125 10.875 -26.390625 8.6875 -26.390625 C 7.539062 -26.390625 6.640625 -26.703125 5.984375 -27.328125 C 5.328125 -27.960938 4.941406 -28.820312 4.828125 -29.90625 C 5.597656 -33.019531 7.398438 -35.519531 10.234375 -37.40625 C 13.078125 -39.289062 16.601562 -40.234375 20.8125 -40.234375 C 25.132812 -40.234375 28.332031 -39.140625 30.40625 -36.953125 C 32.476562 -34.773438 33.515625 -31.0625 33.515625 -25.8125 L 33.515625 -8.28125 C 33.515625 -5.050781 34.414062 -3.4375 36.21875 -3.4375 C 36.875 -3.4375 37.445312 -3.585938 37.9375 -3.890625 C 38.4375 -4.191406 38.875 -4.503906 39.25 -4.828125 L 39.671875 -5.328125 Z M 41.296875 -3.53125 "/></g></g></g><g fill="#32614d" fill-opacity="1"><g transform="translate(389.403327, 74.338763)"><g><path d="M 15.65625 -8.03125 C 17.34375 -6.445312 19.003906 -5.285156 20.640625 -4.546875 C 22.285156 -3.804688 23.875 -3.4375 25.40625 -3.4375 C 26.882812 -3.4375 28.273438 -3.765625 29.578125 -4.421875 C 30.890625 -5.078125 32.035156 -6.0625 33.015625 -7.375 C 34.003906 -8.6875 34.785156 -10.328125 35.359375 -12.296875 C 35.929688 -14.265625 36.21875 -16.554688 36.21875 -19.171875 C 36.21875 -24.472656 35.257812 -28.53125 33.34375 -31.34375 C 31.4375 -34.15625 28.925781 -35.5625 25.8125 -35.5625 C 24.5625 -35.5625 23.113281 -35.234375 21.46875 -34.578125 C 19.832031 -33.921875 17.894531 -32.664062 15.65625 -30.8125 Z M 15.40625 -33.921875 C 17.320312 -36.109375 19.328125 -37.707031 21.421875 -38.71875 C 23.523438 -39.726562 25.726562 -40.234375 28.03125 -40.234375 C 30.21875 -40.234375 32.25 -39.769531 34.125 -38.84375 C 36.007812 -37.914062 37.648438 -36.5625 39.046875 -34.78125 C 40.441406 -33.007812 41.546875 -30.863281 42.359375 -28.34375 C 43.179688 -25.832031 43.59375 -22.992188 43.59375 -19.828125 C 43.59375 -16.660156 43.171875 -13.78125 42.328125 -11.1875 C 41.484375 -8.59375 40.304688 -6.378906 38.796875 -4.546875 C 37.296875 -2.710938 35.519531 -1.289062 33.46875 -0.28125 C 31.425781 0.726562 29.203125 1.234375 26.796875 1.234375 C 24.890625 1.234375 23.03125 0.847656 21.21875 0.078125 C 19.414062 -0.679688 17.671875 -2.019531 15.984375 -3.9375 L 15.328125 -3.9375 L 14.828125 0.8125 L 2.453125 0 L 2.453125 -2.953125 L 8.609375 -4.09375 C 8.660156 -6.175781 8.695312 -8.429688 8.71875 -10.859375 C 8.75 -13.285156 8.765625 -15.398438 8.765625 -17.203125 L 8.765625 -52.375 L 2.046875 -53.1875 L 2.046875 -56.0625 L 14.59375 -59.75 L 15.734375 -59.09375 L 15.40625 -47.453125 Z M 15.40625 -33.921875 "/></g></g></g><g fill="#32614d" fill-opacity="1"><g transform="translate(431.1891, 74.338763)"><g/></g></g><g fill="#32614d" fill-opacity="1"><g transform="translate(444.788548, 74.338763)"><g><path d="M 17.78125 -12.953125 C 17.78125 -8.628906 17.789062 -4.296875 17.8125 0.046875 C 17.84375 4.390625 17.914062 8.71875 18.03125 13.03125 L 2.453125 13.03125 L 2.453125 9.671875 L 11.5625 8.609375 C 11.664062 5.054688 11.71875 1.492188 11.71875 -2.078125 C 11.71875 -5.660156 11.71875 -9.285156 11.71875 -12.953125 L 11.71875 -32.625 C 11.71875 -36.226562 11.71875 -39.816406 11.71875 -43.390625 C 11.71875 -46.972656 11.664062 -50.566406 11.5625 -54.171875 L 2.453125 -55.234375 L 2.453125 -58.59375 L 18.03125 -58.59375 C 17.914062 -54.332031 17.84375 -50.039062 17.8125 -45.71875 C 17.789062 -41.40625 17.78125 -37.039062 17.78125 -32.625 Z M 17.78125 -12.953125 "/></g></g></g></g></g></svg>